<svg xmlns="http://www.w3.org/2000/svg" viewBox="0 0 20.98 30.81"><defs><style>.cls-1{fill:#c94824;stroke:#c94824;stroke-miterlimit:10;stroke-width:0.6px;}</style></defs><title>c</title><g id="Layer_2" data-name="Layer 2"><g id="Layer_1-2" data-name="Layer 1"><path class="cls-1" d="M5.19,30.41a3.73,3.73,0,0,1-1.61-.66,6,6,0,0,1-1.51-1.54A10.24,10.24,0,0,1,.89,25.87a10.8,10.8,0,0,1-.57-3A17.23,17.23,0,0,1,1,17.48a30.2,30.2,0,0,1,2.1-5.56,30.55,30.55,0,0,1,3.09-5A19.52,19.52,0,0,1,9.78,3.18Q13.37.45,16.08.31A4.2,4.2,0,0,1,18.5.87a4,4,0,0,1,1.62,2l.56,1.39s-.09.11-.26.19a4.35,4.35,0,0,1-.6.25q-.34.13-.69.24a3.19,3.19,0,0,1-.48.12c-.08,0-.16-.16-.22-.48a6.86,6.86,0,0,0-.3-1.08,3.58,3.58,0,0,0-.56-1.06,1.1,1.1,0,0,0-1-.44,1.67,1.67,0,0,0-.7.37,12.89,12.89,0,0,0-1.08.87c-.39.35-.77.73-1.14,1.13a10.19,10.19,0,0,0-.93,1.14A19.64,19.64,0,0,0,11.24,8c-.6,1.15-1.22,2.44-1.86,3.88s-1.25,2.93-1.81,4.46A33.33,33.33,0,0,0,6.3,20.53a17,17,0,0,0-.31,2,14.69,14.69,0,0,0,0,2.11c.13,2.47.77,3.67,1.91,3.61a3.38,3.38,0,0,0,1.35-.45,9.38,9.38,0,0,0,1.51-1A11.58,11.58,0,0,0,12,25.54a2.78,2.78,0,0,0,.67-1.16c.09-.46.27-.7.53-.72l.35,0a3.7,3.7,0,0,1,.92.08c.33.07.5.24.51.5a2.84,2.84,0,0,1-.56,1.45,11.7,11.7,0,0,1-1.63,2A8.42,8.42,0,0,1,7,30.5c-.29,0-.58,0-.87,0A5.39,5.39,0,0,1,5.19,30.41Z"/></g></g></svg>