<svg xmlns="http://www.w3.org/2000/svg" viewBox="0 0 177.19 49.94"><defs><style>.cls-1{stroke:#000;stroke-width:0.52px;}.cls-1,.cls-2{stroke-miterlimit:10;}.cls-2{fill:#c94824;stroke:#c94824;stroke-width:0.6px;}</style></defs><title>la-cucina</title><g id="Layer_2" data-name="Layer 2"><g id="Layer_1-2" data-name="Layer 1"><polygon class="cls-1" points="22.77 46.02 25.12 46.02 25.12 45.36 22.77 45.36 22.77 42.7 26.04 42.7 26.04 42.04 21.95 42.04 21.95 49.54 26.11 49.54 26.11 48.88 22.77 48.88 22.77 46.02"/><polygon class="cls-1" points="30.89 48.4 30.86 48.4 29.45 42.04 28.55 42.04 30.3 49.61 31.42 49.61 33.2 42.04 32.29 42.04 30.89 48.4"/><polygon class="cls-1" points="37.19 46.02 39.53 46.02 39.53 45.36 37.19 45.36 37.19 42.7 40.45 42.7 40.45 42.04 36.37 42.04 36.37 49.54 40.53 49.54 40.53 48.88 37.19 48.88 37.19 46.02"/><polygon class="cls-1" points="46.69 47.64 46.66 47.64 44.26 42.04 43.31 42.04 43.31 49.54 44.13 49.54 44.13 43.58 44.16 43.56 46.73 49.61 47.51 49.61 47.51 42.04 46.69 42.04 46.69 47.64"/><polygon class="cls-1" points="49.92 42.7 52.12 42.7 52.12 49.54 52.94 49.54 52.94 42.7 55.17 42.7 55.17 42.04 49.92 42.04 49.92 42.7"/><path class="cls-1" d="M60.25,45.42l-.62-.36c-1.06-.61-1.14-1-1.14-1.36a1.18,1.18,0,0,1,1.27-1.15,2.76,2.76,0,0,1,1.7.84l.5-.56a3.39,3.39,0,0,0-2.17-.94,1.89,1.89,0,0,0-2.11,1.86c0,.94.67,1.45,1.45,1.88l.71.41c1.38.79,1.43,1,1.43,1.6A1.43,1.43,0,0,1,59.77,49,2.15,2.15,0,0,1,58,48l-.63.48a3,3,0,0,0,2.38,1.21,2.09,2.09,0,0,0,2.32-2.14C62.09,46.66,61.69,46.27,60.25,45.42Z"/><path class="cls-1" d="M74.1,41.63l-2.7,7.91h.89l.7-2.21h2.39l.7,2.21H77l-2.71-7.91Zm-.92,5,1-3,1,3Z"/><polygon class="cls-1" points="82.73 47.64 82.69 47.64 80.3 42.04 79.35 42.04 79.35 49.54 80.17 49.54 80.17 43.58 80.19 43.56 82.77 49.61 83.55 49.61 83.55 42.04 82.73 42.04 82.73 47.64"/><path class="cls-1" d="M88.53,42h-2v7.5h1.88c1.71,0,2.65-.87,2.65-3.75S90,42,88.53,42Zm-.18,6.84h-1V42.7h1c1,0,1.91.21,1.91,3.09S89.49,48.88,88.35,48.88Z"/><path class="cls-1" d="M103.19,49c-1.57,0-1.69-2.09-1.69-3.18s.11-3.3,1.77-3.3a1.11,1.11,0,0,1,1.15,1.11h.82a1.89,1.89,0,0,0-2-1.77c-2.22,0-2.58,2.3-2.58,3.94s.32,3.85,2.48,3.85a2,2,0,0,0,2.17-2h-.82A1.27,1.27,0,0,1,103.19,49Z"/><path class="cls-1" d="M110.14,41.63l-2.7,7.91h.89l.7-2.21h2.39l.7,2.21H113l-2.71-7.91Zm-.92,5,1-3,1,3Z"/><polygon class="cls-1" points="114.79 42.7 116.99 42.7 116.99 49.54 117.81 49.54 117.81 42.7 120.04 42.7 120.04 42.04 114.79 42.04 114.79 42.7"/><polygon class="cls-1" points="123.68 46.02 126.03 46.02 126.03 45.36 123.68 45.36 123.68 42.7 126.95 42.7 126.95 42.04 122.86 42.04 122.86 49.54 127.02 49.54 127.02 48.88 123.68 48.88 123.68 46.02"/><path class="cls-1" d="M134.16,44.16A2,2,0,0,0,132,42h-2v7.5h.82v-3.1c.39,0,.79,0,1.18,0l1.91,3.13h1l-2.12-3.3A2.23,2.23,0,0,0,134.16,44.16Zm-2.58,1.61h-.78V42.7h.81c1.3,0,1.74.42,1.74,1.42S132.69,45.77,131.58,45.77Z"/><polygon class="cls-1" points="137.56 42.7 138.62 42.7 138.62 48.88 137.56 48.88 137.56 49.54 140.51 49.54 140.51 48.88 139.44 48.88 139.44 42.7 140.51 42.7 140.51 42.04 137.56 42.04 137.56 42.7"/><polygon class="cls-1" points="147.6 47.64 147.56 47.64 145.17 42.04 144.22 42.04 144.22 49.54 145.04 49.54 145.04 43.58 145.06 43.56 147.64 49.61 148.42 49.61 148.42 42.04 147.6 42.04 147.6 47.64"/><path class="cls-1" d="M153.31,46.45h1.86v.49c0,1.5-.85,2.09-1.61,2.09C152,49,152,46.88,152,45.84s.06-3.29,1.7-3.29A1.16,1.16,0,0,1,154.78,44h.82a1.88,1.88,0,0,0-2-2.07c-1.53,0-2.48,1.1-2.48,4.07,0,3.62,1.73,3.72,2.37,3.72a2.2,2.2,0,0,0,1.65-.72v.72H156V45.79h-2.67Z"/><path class="cls-2" d="M2.65,29.86A8.7,8.7,0,0,0,3.8,28.74a9,9,0,0,0,1-1.53,22.26,22.26,0,0,0,1.07-2.29c.38-.91.81-2.05,1.31-3.39s1.08-3,1.75-4.88,1.45-4.13,2.36-6.7l1-2.62c.3-.83.6-1.6.88-2.32L14,2.86,16,2c1.46-.58,2.6-1,3.44-1.27A13,13,0,0,1,21.16.3c.14,0,.22,0,.23.17a6.16,6.16,0,0,0-.38.78L20,3.51c-.44,1-.93,2.08-1.47,3.38L16.78,11c-.61,1.45-1.23,3-1.87,4.48s-1.24,3-1.81,4.5S12,22.68,11.6,23.59s-.71,1.55-.93,1.95L10,26.74l.82.61.46.33a1.6,1.6,0,0,0,.47.17,3.22,3.22,0,0,0,.75,0l1.25,0,2.88-.16a18.58,18.58,0,0,1,2,0c.37,0,.56.09.56.19a1.11,1.11,0,0,1-.17.46,2.83,2.83,0,0,0-.25.76l-.13.77-3.15.24c-.87.05-1.61.07-2.21.06A9.36,9.36,0,0,1,11.72,30a5.2,5.2,0,0,1-1.25-.35A7.1,7.1,0,0,1,9.28,29a2.68,2.68,0,0,0-.61-.31l-.34-.11a1.43,1.43,0,0,0-.69.29A12.11,12.11,0,0,1,5,30.3a15.56,15.56,0,0,1-2.29.61l-1.61.27Z"/><path class="cls-2" d="M23.66,31c-.26-.06-.4-.17-.41-.34s.18-.44.59-.58a2.05,2.05,0,0,0,.85-.84,14.64,14.64,0,0,0,1.07-2.15c.41-1,.86-2.18,1.37-3.67S28.21,20.1,28.86,18q1.25-4,2.28-6.7a28.91,28.91,0,0,1,2.12-4.49,12.58,12.58,0,0,1,2.2-2.83A10.65,10.65,0,0,1,38,2.2a15.33,15.33,0,0,1,2.79-1.11A13.27,13.27,0,0,1,43.67.67q1.14-.06,1.8-.06a8.38,8.38,0,0,1,1,.05.8.8,0,0,1,.45.18.52.52,0,0,1,.1.27,8.5,8.5,0,0,1-.42,1.73C46.33,3.8,46,5,45.52,6.31L44.09,10.7c-.52,1.57-1,3-1.46,4.42s-.85,2.58-1.2,3.59-.55,1.64-.62,1.89l-3,9.58-1.14.06c-.41,0-.69,0-.85,0s-.25-.06-.26-.18a.68.68,0,0,1,0-.21,2.77,2.77,0,0,1,.15-.4c.08-.19.18-.45.31-.78s.28-.78.46-1.32l.67-2.22c0-.09-.2-.15-.6-.17s-1.07,0-2,.06l-2.8.14-.65.95a12.31,12.31,0,0,1-1.55,1.81,18.76,18.76,0,0,1-1.85,1.55,10.67,10.67,0,0,1-1.9,1.1,5.09,5.09,0,0,1-1.64.45A3.12,3.12,0,0,1,23.66,31ZM39,20c.27-.91.6-2,1-3.18s.77-2.46,1.19-3.75.83-2.58,1.25-3.87.77-2.44,1.09-3.49.56-1.93.76-2.66a6.27,6.27,0,0,0,.27-1.38c0-.07,0-.1-.13-.1a2.81,2.81,0,0,0-.46.11,6,6,0,0,0-.83.36,7.83,7.83,0,0,0-1.84,1.46A12.07,12.07,0,0,0,39.52,6a36.33,36.33,0,0,0-1.88,4q-1,2.43-2.25,6L33,23a.21.21,0,0,0,0,.15c0,.12.14.19.41.2l4.59-.21Z"/><path class="cls-2" d="M59.48,30.85a3.78,3.78,0,0,1-1.61-.66,5.84,5.84,0,0,1-1.51-1.54,9.47,9.47,0,0,1-1.17-2.34,10.39,10.39,0,0,1-.58-3,17.16,17.16,0,0,1,.64-5.36,31.81,31.81,0,0,1,2.1-5.57,30.25,30.25,0,0,1,3.1-5,19.2,19.2,0,0,1,3.62-3.72Q67.66.9,70.37.75a4.11,4.11,0,0,1,2.42.57,4,4,0,0,1,1.62,2L75,4.69s-.08.12-.26.2l-.6.25-.69.23a1.82,1.82,0,0,1-.47.12c-.09,0-.17-.15-.23-.48a8.3,8.3,0,0,0-.29-1.07,4.18,4.18,0,0,0-.56-1.07,1.11,1.11,0,0,0-1-.43,1.58,1.58,0,0,0-.71.36c-.32.24-.68.53-1.07.88a12.22,12.22,0,0,0-1.15,1.13A13.06,13.06,0,0,0,67,6a18.92,18.92,0,0,0-1.47,2.48c-.6,1.14-1.22,2.44-1.86,3.87s-1.24,2.93-1.81,4.46A33.44,33.44,0,0,0,60.59,21a19.1,19.1,0,0,0-.31,2,13.45,13.45,0,0,0,0,2.11c.13,2.47.76,3.67,1.9,3.61a3.42,3.42,0,0,0,1.36-.45,9,9,0,0,0,1.5-1A10.75,10.75,0,0,0,66.27,26a2.68,2.68,0,0,0,.67-1.16c.09-.47.27-.71.53-.72l.35,0a3.38,3.38,0,0,1,.93.08c.32.07.49.23.51.5a2.87,2.87,0,0,1-.57,1.45,13,13,0,0,1-1.62,2A8.58,8.58,0,0,1,60.37,31,5.39,5.39,0,0,1,59.48,30.85Z"/><path class="cls-2" d="M83.48,30.14a.83.83,0,0,0,.2-.41c0-.05,0-.07-.05-.07a3.1,3.1,0,0,0-.44.23c-.28.14-.6.3-1,.46s-.8.33-1.25.49a4.31,4.31,0,0,1-1.23.26,4.69,4.69,0,0,1-2.17-.37,6.06,6.06,0,0,1-1.71-1.13,5.88,5.88,0,0,1-1.15-1.51,3.6,3.6,0,0,1-.48-1.54c0-.7,0-1.29,0-1.77a8.79,8.79,0,0,1,.16-1.56,18.14,18.14,0,0,1,.49-1.92c.23-.72.54-1.68,1-2.86q2.3-6.6,3.55-10.14A22.68,22.68,0,0,1,81,4.16a5.48,5.48,0,0,1,1.08-.68c.64-.34,1.34-.71,2.09-1.09s1.46-.72,2.12-1A8,8,0,0,1,87.44.91a.35.35,0,0,1,.41.38A17.8,17.8,0,0,1,86.67,4.7q-1.2,3-3.74,9Q78.68,24,78.84,26.89a1.74,1.74,0,0,0,.75,1.46,2.8,2.8,0,0,0,1.71.42A5.26,5.26,0,0,0,83,28.42a3.66,3.66,0,0,0,1.39-1.05,10.06,10.06,0,0,0,1.33-2.16c.45-.93,1-2.17,1.52-3.7.26-.69.55-1.45.89-2.28s.73-1.79,1.19-2.87,1-2.31,1.52-3.71,1.18-3,1.87-4.88L95,1.9a1.75,1.75,0,0,1,.49-.3c.27-.12.59-.25,1-.37A11.12,11.12,0,0,1,97.47.9a4.69,4.69,0,0,1,.89-.16.15.15,0,0,1,0,.07A5,5,0,0,1,98,2.29c-.31.77-.72,1.74-1.23,2.92s-1.11,2.54-1.79,4.07-1.38,3.19-2.11,5c-.36.85-.71,1.64-1,2.38s-.67,1.55-1,2.4S90,20.83,89.55,21.9s-1,2.34-1.56,3.82l-1.74,4.39-1.34.47-.67.21a2.21,2.21,0,0,1-.45.1c-.33,0-.49-.06-.5-.23A2.42,2.42,0,0,1,83.48,30.14Z"/><path class="cls-2" d="M100.32,30.85a3.76,3.76,0,0,1-1.62-.66,5.84,5.84,0,0,1-1.51-1.54A9.47,9.47,0,0,1,96,26.31a10.39,10.39,0,0,1-.58-3,17.16,17.16,0,0,1,.64-5.36,31.81,31.81,0,0,1,2.1-5.57,30.25,30.25,0,0,1,3.1-5,19.2,19.2,0,0,1,3.62-3.72Q108.49.9,111.2.75a4.11,4.11,0,0,1,2.42.57,4,4,0,0,1,1.62,2l.56,1.39s-.08.12-.25.2l-.61.25-.69.23a1.82,1.82,0,0,1-.47.12c-.09,0-.16-.15-.23-.48a8.3,8.3,0,0,0-.29-1.07,4.18,4.18,0,0,0-.56-1.07,1.11,1.11,0,0,0-1-.43,1.58,1.58,0,0,0-.71.36c-.32.24-.68.53-1.07.88a13.56,13.56,0,0,0-1.15,1.13A13.06,13.06,0,0,0,107.83,6a18.92,18.92,0,0,0-1.47,2.48c-.6,1.14-1.22,2.44-1.86,3.87s-1.24,2.93-1.81,4.46A35.18,35.18,0,0,0,101.42,21a19.1,19.1,0,0,0-.31,2,13.45,13.45,0,0,0,0,2.11c.13,2.47.76,3.67,1.9,3.61a3.42,3.42,0,0,0,1.36-.45,9,9,0,0,0,1.5-1A10.75,10.75,0,0,0,107.1,26a2.68,2.68,0,0,0,.67-1.16c.09-.47.27-.71.53-.72l.35,0a3.38,3.38,0,0,1,.93.08c.32.07.49.23.51.5a2.93,2.93,0,0,1-.56,1.45,13.71,13.71,0,0,1-1.63,2,8.41,8.41,0,0,1-5.82,2.81,8.64,8.64,0,0,1-.88,0A5.16,5.16,0,0,1,100.32,30.85Z"/><path class="cls-2" d="M116.48,26.92q1-1.91,2.93-6.93t4.91-13.45a25.05,25.05,0,0,1,1.55-3.86c0-.09.25-.27.77-.51s1.09-.5,1.73-.75,1.28-.48,1.9-.68A6.41,6.41,0,0,1,131.5.42c.09,0,.14,0,.14.1a13,13,0,0,1-.86,2.89q-.89,2.45-2.62,6.93-1.89,4.9-3.24,8.1c-.9,2.13-1.62,3.76-2.18,4.88A15.2,15.2,0,0,1,121,26.1a16.57,16.57,0,0,1-2,2.18,13.39,13.39,0,0,1-2.07,1.53,8.94,8.94,0,0,1-1.84.86l-1.17.35s-.11,0-.26.05-.26-.06-.27-.2.12-.24.37-.51.54-.59.87-1l1-1.21A7.8,7.8,0,0,0,116.48,26.92Z"/><path class="cls-2" d="M145.32,29.93a8.79,8.79,0,0,1-2.6-1.43A6.64,6.64,0,0,1,141,26.34a13.46,13.46,0,0,1-1.07-3.2c-.27-1.26-.52-2.78-.76-4.56q-.57-4-.88-5.81a10.31,10.31,0,0,0-.41-1.91,4.32,4.32,0,0,1-.3.93L136.74,14c-.37,1-.8,2.09-1.29,3.4l-1.62,4.34L132.3,26a10.28,10.28,0,0,0-.66,1.76c-.12.48-.22.85-.29,1.12l-.6,1.93-1.49.15-.5,0-.41,0c-.38,0-.57,0-.58-.08a6.68,6.68,0,0,1,.33-.87c.22-.53.47-1.16.76-1.88.72-1.78,1.42-3.49,2.08-5.14s1.29-3.28,1.89-4.9,1.18-3.26,1.74-4.93,1.09-3.43,1.61-5.3a10.06,10.06,0,0,0,.4-1.9,12.08,12.08,0,0,0,0-2,3.76,3.76,0,0,0-.34-1.56,2.06,2.06,0,0,1-.31-.73q0-.33.51-.36a2.62,2.62,0,0,1,1.1.44,13.11,13.11,0,0,1,1.64,1.13,20.19,20.19,0,0,1,1.61,1.46,4.71,4.71,0,0,1,1,1.39,20.6,20.6,0,0,1,.72,2.52c.25,1,.48,2.16.71,3.35s.43,2.39.62,3.6.37,2.31.53,3.28.28,1.77.38,2.38.19.92.25.92.42-.41.73-1.21l.93-2.3L150.15,9c.72-1.9,1.25-3.39,1.61-4.46s.62-1.88.82-2.41a4.68,4.68,0,0,1,.43-1,.56.56,0,0,1,.45-.2h.17c.18,0,.4,0,.66-.07l.91-.16,1.26-.25-.68,1.24q-1,1.83-4.64,11.12-1,2.67-1.8,4.64l-1.29,3.39c-.36.95-.64,1.76-.84,2.41s-.36,1.23-.48,1.72a7.2,7.2,0,0,0-.22,1.3,11.61,11.61,0,0,0,0,1.18,3.63,3.63,0,0,0,.52,2,2.29,2.29,0,0,1,.45.75c0,.13-.09.19-.29.2a4.6,4.6,0,0,1-1.38-.25Z"/><path class="cls-2" d="M153.52,31c-.26-.06-.4-.17-.41-.34s.18-.44.58-.58a2,2,0,0,0,.86-.84,14.64,14.64,0,0,0,1.07-2.15c.41-1,.86-2.18,1.37-3.67s1.08-3.31,1.73-5.46q1.25-4,2.28-6.7a28.91,28.91,0,0,1,2.12-4.49,12.58,12.58,0,0,1,2.2-2.83,10.65,10.65,0,0,1,2.54-1.73,15,15,0,0,1,2.79-1.11,13.27,13.27,0,0,1,2.88-.42c.76,0,1.36-.06,1.79-.06a8.57,8.57,0,0,1,1,.05.73.73,0,0,1,.44.18.46.46,0,0,1,.11.27,8.5,8.5,0,0,1-.42,1.73c-.28,1-.65,2.12-1.09,3.47s-.92,2.82-1.44,4.39-1,3-1.45,4.42l-1.2,3.59c-.34,1-.55,1.64-.62,1.89l-3,9.58-1.14.06c-.41,0-.69,0-.86,0s-.24-.06-.25-.18a.68.68,0,0,1,0-.21,2.77,2.77,0,0,1,.15-.4c.08-.19.18-.45.31-.78s.28-.78.46-1.32l.67-2.22c0-.09-.2-.15-.6-.17s-1.07,0-2,.06l-2.8.14-.65.95a12.31,12.31,0,0,1-1.55,1.81,18.76,18.76,0,0,1-1.85,1.55,10.67,10.67,0,0,1-1.9,1.1A5.15,5.15,0,0,1,154,31,3.12,3.12,0,0,1,153.52,31ZM168.84,20c.27-.91.6-2,1-3.18s.77-2.46,1.19-3.75.83-2.58,1.24-3.87.78-2.44,1.09-3.49.57-1.93.76-2.66a5.92,5.92,0,0,0,.28-1.38c0-.07-.05-.1-.13-.1a2.81,2.81,0,0,0-.46.11,6.58,6.58,0,0,0-.84.36,8,8,0,0,0-1.83,1.46A12.07,12.07,0,0,0,169.38,6a36.33,36.33,0,0,0-1.88,4q-1,2.43-2.25,6l-2.45,7a.21.21,0,0,0,0,.15c0,.12.14.19.4.2l4.6-.21Z"/></g></g></svg>