<svg xmlns="http://www.w3.org/2000/svg" viewBox="0 0 41.31 17.34"><defs><style>.cls-1{fill:#c94824;}</style></defs><title>Asset 5</title><g id="Layer_2" data-name="Layer 2"><g id="Layer_1-2" data-name="Layer 1"><path class="cls-1" d="M32.62,17.09a2,2,0,0,1-.91-.37,3.31,3.31,0,0,1-.85-.86,5.54,5.54,0,0,1-.66-1.31,6,6,0,0,1-.32-1.7,9.55,9.55,0,0,1,.36-3,17.18,17.18,0,0,1,1.18-3.13,17.49,17.49,0,0,1,1.74-2.82,10.89,10.89,0,0,1,2-2.08A6.69,6.69,0,0,1,38.73.19a2.31,2.31,0,0,1,1.36.32A2.26,2.26,0,0,1,41,1.62l.31.78s0,.07-.14.11a2.18,2.18,0,0,1-.34.14l-.39.14a1.07,1.07,0,0,1-.26.06s-.09-.09-.13-.27a3.48,3.48,0,0,0-.17-.6,2.13,2.13,0,0,0-.31-.6A.62.62,0,0,0,39,1.14a.87.87,0,0,0-.39.2,7.27,7.27,0,0,0-.61.49c-.22.2-.43.41-.64.64a5.23,5.23,0,0,0-.52.64A10.42,10.42,0,0,0,36,4.5c-.34.64-.68,1.37-1,2.18s-.7,1.64-1,2.5a18,18,0,0,0-.71,2.37,10.63,10.63,0,0,0-.18,1.13,7.81,7.81,0,0,0,0,1.19c.07,1.38.43,2.06,1.07,2a1.86,1.86,0,0,0,.76-.25,4.67,4.67,0,0,0,.84-.58,6,6,0,0,0,.72-.7,1.51,1.51,0,0,0,.37-.65c.05-.26.15-.4.3-.4h.2a1.91,1.91,0,0,1,.52,0c.18,0,.28.13.28.28a1.56,1.56,0,0,1-.31.81,6.63,6.63,0,0,1-.92,1.13,4.68,4.68,0,0,1-3.27,1.58,4,4,0,0,1-.49,0A2.05,2.05,0,0,1,32.62,17.09Z"/><path class="cls-1" d="M24.63,2.31A3.41,3.41,0,0,0,20.76,4a.14.14,0,0,1-.23,0A3.43,3.43,0,0,0,16.67,2.3a3,3,0,0,0-2,2.83,2.23,2.23,0,0,0,0,.36c.16,1.69,1.57,4,3,6l.06-4.64h.66l.08,5.72c.32.42.62.81.9,1.15l.09-6.87h.66l.1,7.9.33.38a.15.15,0,0,0,.21,0l.33-.38.1-7.9h.66l.09,6.87c.28-.34.58-.73.9-1.15l.07-5.72h.67l.06,4.64c1.41-2,2.82-4.32,3-6,0-.12,0-.24,0-.35A3,3,0,0,0,24.63,2.31Z"/><path class="cls-1" d="M.9,16.6A4.76,4.76,0,0,0,1.54,16a4.27,4.27,0,0,0,.57-.86,12.24,12.24,0,0,0,.6-1.28c.21-.52.46-1.15.74-1.91s.61-1.67,1-2.74.81-2.32,1.33-3.76L6.3,4c.17-.47.34-.9.5-1.3l.48-1.21L8.41,1C9.23.64,9.88.4,10.34.25A8.11,8.11,0,0,1,11.29,0c.08,0,.13,0,.13.1a3.5,3.5,0,0,0-.21.44L10.63,1.8c-.24.54-.51,1.17-.82,1.9S9.18,5.21,8.83,6l-1,2.52c-.35.86-.69,1.7-1,2.52s-.62,1.51-.84,2-.41.87-.53,1.1L5,14.85l.46.34.26.18a.62.62,0,0,0,.26.1,2.42,2.42,0,0,0,.42,0l.7,0,1.63-.08a9.36,9.36,0,0,1,1.14,0c.21,0,.31.05.32.11a.8.8,0,0,1-.1.26,1.48,1.48,0,0,0-.14.42l-.08.44-1.76.13c-.49,0-.91,0-1.25,0A5.93,5.93,0,0,1,6,16.7a3,3,0,0,1-.7-.2,4.28,4.28,0,0,1-.67-.38,1.64,1.64,0,0,0-.34-.18l-.19-.06A.84.84,0,0,0,3.7,16a6.89,6.89,0,0,1-1.51.81,8.78,8.78,0,0,1-1.29.34l-.9.15Z"/></g></g></svg>