<svg xmlns="http://www.w3.org/2000/svg" viewBox="0 0 305.09 142.88"><defs><style>.cls-1{fill:#c94824;}.cls-2{fill:none;stroke:#c94824;stroke-linejoin:round;stroke-width:1.82px;}</style></defs><title>la-cucina-full</title><g id="Layer_2" data-name="Layer 2"><g id="Layer_1-2" data-name="Layer 1"><path class="cls-1" d="M2.68,101.6a13.66,13.66,0,0,0,1.93-1.87,14.94,14.94,0,0,0,1.7-2.56A38,38,0,0,0,8.1,93.33Q9,91,10.31,87.63c.83-2.26,1.81-5,2.92-8.17s2.43-6.94,4-11.25q.84-2.31,1.61-4.39c.52-1.39,1-2.69,1.49-3.89l1.43-3.61,3.39-1.4c2.45-1,4.38-1.7,5.78-2.13A20.51,20.51,0,0,1,33.73,52c.24,0,.37.08.38.28q0-.06-.63,1.32t-1.71,3.78q-1.1,2.4-2.47,5.68T26.39,70c-1,2.43-2.07,4.94-3.14,7.52s-2.08,5.09-3,7.54-1.84,4.5-2.52,6-1.2,2.61-1.56,3.28l-1.14,2,1.38,1c.3.23.56.41.76.54a2.21,2.21,0,0,0,.79.29,5.6,5.6,0,0,0,1.26.09c.51,0,1.21,0,2.09-.08L26.13,98a30.39,30.39,0,0,1,3.42-.06c.61,0,.93.15.93.32a2.05,2.05,0,0,1-.29.77,4.57,4.57,0,0,0-.41,1.28l-.22,1.29-5.29.4c-1.46.07-2.7.11-3.71.1a17.28,17.28,0,0,1-2.66-.2,8.64,8.64,0,0,1-2.09-.59,11.71,11.71,0,0,1-2-1.14,4.56,4.56,0,0,0-1-.53l-.57-.18a2.62,2.62,0,0,0-1.15.48,20.63,20.63,0,0,1-4.51,2.41,26.15,26.15,0,0,1-3.85,1l-2.7.45Z"/><path class="cls-1" d="M37.93,103.51c-.44-.1-.67-.29-.69-.58s.31-.72,1-1a3.36,3.36,0,0,0,1.44-1.42,24.66,24.66,0,0,0,1.8-3.6c.67-1.6,1.44-3.66,2.29-6.16s1.82-5.56,2.9-9.15q2.09-6.7,3.83-11.25A48.83,48.83,0,0,1,54,62.86a20.76,20.76,0,0,1,3.69-4.74A17.75,17.75,0,0,1,62,55.21a25.79,25.79,0,0,1,4.69-1.86,22.82,22.82,0,0,1,4.82-.71c1.28-.07,2.28-.1,3-.1a11.7,11.7,0,0,1,1.69.1,1.27,1.27,0,0,1,.76.29.86.86,0,0,1,.17.45,14.93,14.93,0,0,1-.7,2.9q-.72,2.43-1.83,5.83t-2.41,7.36c-.87,2.63-1.68,5.1-2.45,7.42s-1.42,4.32-2,6-.92,2.75-1,3.17l-5,16.06-1.9.1c-.69,0-1.17.05-1.44.05s-.41-.11-.42-.32a1,1,0,0,1,.06-.34,5.19,5.19,0,0,1,.26-.68c.13-.31.3-.75.52-1.31s.47-1.29.76-2.2l1.13-3.72c0-.17-.34-.26-1-.29s-1.81,0-3.42.09l-4.7.25-1.1,1.58a20.21,20.21,0,0,1-2.6,3,29.58,29.58,0,0,1-3.1,2.61,18,18,0,0,1-3.18,1.84,8.49,8.49,0,0,1-2.76.76A6,6,0,0,1,37.93,103.51ZM63.62,85.14q.69-2.3,1.64-5.33t2-6.3q1-3.26,2.09-6.48c.7-2.15,1.3-4.11,1.83-5.86s.94-3.25,1.27-4.46a10.27,10.27,0,0,0,.47-2.32c0-.12-.08-.17-.23-.17a5,5,0,0,0-.76.2,8.42,8.42,0,0,0-1.41.59,13.44,13.44,0,0,0-3.07,2.45,20.29,20.29,0,0,0-2.91,4.15,61,61,0,0,0-3.15,6.72q-1.66,4.08-3.78,10.11L53.5,90.12a.4.4,0,0,0-.06.25c0,.2.24.31.68.33l7.72-.34Z"/><path class="cls-1" d="M108.15,103.28a6.35,6.35,0,0,1-2.71-1.11,9.88,9.88,0,0,1-2.53-2.58,16.4,16.4,0,0,1-2-3.93,17.5,17.5,0,0,1-1-5.07,28.71,28.71,0,0,1,1.08-9,51.84,51.84,0,0,1,8.71-17.76,32.55,32.55,0,0,1,6.08-6.23q6-4.59,10.57-4.83a7.1,7.1,0,0,1,4.06.95,6.65,6.65,0,0,1,2.72,3.34l.93,2.33c0,.08-.14.19-.42.32s-.63.28-1,.42-.77.28-1.16.4a3.48,3.48,0,0,1-.8.19c-.15,0-.27-.26-.37-.8a13.47,13.47,0,0,0-.5-1.8,6.78,6.78,0,0,0-.94-1.79,1.88,1.88,0,0,0-1.7-.73,2.8,2.8,0,0,0-1.18.61,19.57,19.57,0,0,0-1.8,1.47,26.5,26.5,0,0,0-1.93,1.9,18.91,18.91,0,0,0-1.55,1.91,30.29,30.29,0,0,0-2.47,4.16q-1.52,2.88-3.12,6.5t-3,7.48A55.81,55.81,0,0,0,110,86.71a31.67,31.67,0,0,0-.52,3.38,24.44,24.44,0,0,0-.07,3.54q.33,6.21,3.19,6.06a5.73,5.73,0,0,0,2.28-.76,14.79,14.79,0,0,0,2.52-1.72,19.32,19.32,0,0,0,2.14-2.09,4.71,4.71,0,0,0,1.11-2c.15-.78.45-1.19.89-1.21l.59,0a6,6,0,0,1,1.55.13c.55.12.83.4.86.84a4.81,4.81,0,0,1-.94,2.43,21.29,21.29,0,0,1-2.73,3.38,14.16,14.16,0,0,1-9.77,4.72c-.49,0-1,0-1.47,0A9.3,9.3,0,0,1,108.15,103.28Z"/><path class="cls-1" d="M148.41,102.08a1.67,1.67,0,0,0,.33-.68c0-.08,0-.12-.08-.12a5.41,5.41,0,0,0-.76.37c-.45.25-1,.51-1.65.79s-1.34.55-2.09.81a7.51,7.51,0,0,1-2.08.45,7.73,7.73,0,0,1-3.64-.64,9.89,9.89,0,0,1-2.86-1.89,10.2,10.2,0,0,1-1.93-2.52,6.13,6.13,0,0,1-.8-2.58c-.06-1.18-.09-2.17-.08-3a14.4,14.4,0,0,1,.26-2.6,30.24,30.24,0,0,1,.83-3.22q.57-1.83,1.59-4.81,3.84-11.06,6-17a40.76,40.76,0,0,1,2.87-7,9.45,9.45,0,0,1,1.82-1.13q1.6-.88,3.51-1.83c1.27-.64,2.45-1.21,3.56-1.72a10.87,10.87,0,0,1,1.87-.76.58.58,0,0,1,.69.63c0,.45-.63,2.35-2,5.72s-3.44,8.37-6.28,15q-7.11,17.32-6.86,22.2a2.93,2.93,0,0,0,1.27,2.43,4.63,4.63,0,0,0,2.87.71,8.73,8.73,0,0,0,2.77-.58,6.13,6.13,0,0,0,2.34-1.77,16.81,16.81,0,0,0,2.24-3.62c.75-1.57,1.6-3.63,2.54-6.21.43-1.16.93-2.43,1.49-3.83s1.23-3,2-4.8,1.61-3.88,2.54-6.23,2-5.08,3.14-8.19l3.83-9.84a2.59,2.59,0,0,1,.82-.5c.46-.2,1-.42,1.59-.63s1.2-.4,1.81-.55a7.49,7.49,0,0,1,1.5-.26.17.17,0,0,1,.08.11,8.24,8.24,0,0,1-.76,2.48c-.52,1.29-1.21,2.93-2.06,4.9s-1.85,4.26-3,6.84-2.32,5.35-3.54,8.3q-.93,2.11-1.74,4c-.55,1.25-1.13,2.59-1.74,4s-1.29,3-2,4.83S157,92.18,156,94.67L153,102l-2.24.79-1.12.37a3.19,3.19,0,0,1-.77.16c-.54,0-.81-.1-.83-.38A4.12,4.12,0,0,1,148.41,102.08Z"/><path class="cls-1" d="M176.64,103.28a6.4,6.4,0,0,1-2.71-1.11,9.88,9.88,0,0,1-2.53-2.58,16.77,16.77,0,0,1-2-3.93,17.5,17.5,0,0,1-1-5.07,29,29,0,0,1,1.08-9,51.84,51.84,0,0,1,8.71-17.76,32.55,32.55,0,0,1,6.08-6.23q6-4.59,10.57-4.83a7.1,7.1,0,0,1,4.06.95,6.6,6.6,0,0,1,2.72,3.34l.93,2.33c0,.08-.14.19-.42.32s-.63.28-1,.42-.77.28-1.16.4a3.48,3.48,0,0,1-.8.19c-.15,0-.27-.26-.37-.8a12.12,12.12,0,0,0-.5-1.8,6.78,6.78,0,0,0-.94-1.79,1.88,1.88,0,0,0-1.7-.73,2.8,2.8,0,0,0-1.18.61,22.69,22.69,0,0,0-1.8,1.47,26.5,26.5,0,0,0-1.93,1.9,18.91,18.91,0,0,0-1.55,1.91,30.29,30.29,0,0,0-2.47,4.16q-1.5,2.88-3.12,6.5t-3,7.48a54.05,54.05,0,0,0-2.13,7.07,29.34,29.34,0,0,0-.53,3.38,24.44,24.44,0,0,0-.07,3.54q.33,6.21,3.19,6.06a5.63,5.63,0,0,0,2.28-.76,14.79,14.79,0,0,0,2.52-1.72A19.32,19.32,0,0,0,188,95.12a4.71,4.71,0,0,0,1.11-2c.16-.78.45-1.19.89-1.21l.59,0a6.09,6.09,0,0,1,1.56.13c.54.12.83.4.85.84a4.71,4.71,0,0,1-.94,2.43,21.29,21.29,0,0,1-2.73,3.38,14.16,14.16,0,0,1-9.77,4.72c-.49,0-1,0-1.47,0A9.3,9.3,0,0,1,176.64,103.28Z"/><path class="cls-1" d="M203.75,96.68q1.68-3.2,4.91-11.63t8.25-22.55a40.07,40.07,0,0,1,2.6-6.48c0-.16.42-.45,1.28-.86s1.83-.83,2.92-1.25,2.14-.8,3.18-1.14a10.34,10.34,0,0,1,2.07-.54c.14,0,.22.05.23.17a23.37,23.37,0,0,1-1.44,4.84q-1.49,4.09-4.4,11.63-3.18,8.22-5.44,13.59c-1.5,3.58-2.72,6.3-3.65,8.18a26.93,26.93,0,0,1-2.92,4.67A28.9,28.9,0,0,1,207.92,99a22.81,22.81,0,0,1-3.47,2.56,15.87,15.87,0,0,1-3.09,1.44l-2,.59a.93.93,0,0,1-.44.08c-.29,0-.45-.09-.46-.34s.2-.41.62-.85.9-1,1.46-1.64,1.13-1.32,1.73-2A12.68,12.68,0,0,0,203.75,96.68Z"/><path class="cls-1" d="M252.13,101.73a14.5,14.5,0,0,1-4.35-2.4,11,11,0,0,1-2.85-3.63,23.11,23.11,0,0,1-1.79-5.37q-.67-3.17-1.28-7.65c-.63-4.48-1.12-7.72-1.47-9.74a19.21,19.21,0,0,0-.68-3.2,7.89,7.89,0,0,1-.51,1.55c-.34.92-.83,2.17-1.46,3.77s-1.35,3.5-2.17,5.7-1.72,4.62-2.71,7.28l-2.57,7a18.23,18.23,0,0,0-1.1,3c-.2.8-.37,1.43-.49,1.89l-1,3.22-2.49.25c-.34,0-.62.05-.84.08l-.7.07c-.63,0-1,0-1-.14a9.47,9.47,0,0,1,.55-1.46c.37-.89.79-1.94,1.27-3.15,1.21-3,2.38-5.87,3.48-8.63s2.17-5.5,3.18-8.22,2-5.47,2.92-8.26,1.83-5.76,2.7-8.9a17.56,17.56,0,0,0,.68-3.18,22,22,0,0,0,.08-3.39,6.2,6.2,0,0,0-.58-2.62,3.49,3.49,0,0,1-.51-1.22c0-.37.27-.57.86-.6a4.39,4.39,0,0,1,1.84.73,21.38,21.38,0,0,1,2.75,1.9,31.24,31.24,0,0,1,2.7,2.45,7.76,7.76,0,0,1,1.71,2.32,36.77,36.77,0,0,1,1.21,4.24c.41,1.74.81,3.62,1.18,5.61s.73,4,1.05,6,.62,3.88.88,5.51.48,3,.65,4,.32,1.54.41,1.54c.3,0,.7-.69,1.22-2l1.57-3.86,5.73-15.62q1.81-4.79,2.7-7.49c.59-1.8,1.05-3.15,1.37-4a8.35,8.35,0,0,1,.73-1.65,1,1,0,0,1,.75-.35h.3c.29,0,.66-.06,1.09-.12s.95-.15,1.54-.26l2.11-.42-1.14,2.07Q268,57.41,261.89,73q-1.75,4.48-3,7.79c-.85,2.2-1.57,4.09-2.17,5.69s-1.07,3-1.41,4-.6,2.06-.81,2.88a12.78,12.78,0,0,0-.36,2.18,18.8,18.8,0,0,0,0,2,6.24,6.24,0,0,0,.87,3.28,4.1,4.1,0,0,1,.77,1.27c0,.2-.15.31-.5.33A8,8,0,0,1,253,102Z"/><path class="cls-1" d="M265.89,103.51c-.44-.1-.68-.29-.69-.58s.3-.72,1-1a3.35,3.35,0,0,0,1.43-1.42,22.78,22.78,0,0,0,1.8-3.6c.68-1.6,1.44-3.66,2.3-6.16s1.81-5.56,2.9-9.15q2.08-6.7,3.83-11.25A49.84,49.84,0,0,1,282,62.86a21.05,21.05,0,0,1,3.7-4.74,17.75,17.75,0,0,1,4.26-2.91,25.51,25.51,0,0,1,4.69-1.86,22.82,22.82,0,0,1,4.82-.71c1.27-.07,2.28-.1,3-.1a11.75,11.75,0,0,1,1.7.1,1.21,1.21,0,0,1,.75.29.8.8,0,0,1,.18.45,14.93,14.93,0,0,1-.7,2.9q-.72,2.43-1.83,5.83t-2.41,7.36q-1.31,3.94-2.45,7.42c-.76,2.32-1.43,4.32-2,6s-.92,2.75-1.05,3.17l-5,16.06-1.91.1c-.68,0-1.16.05-1.43.05s-.41-.11-.42-.32a1,1,0,0,1,.05-.34,7.28,7.28,0,0,1,.26-.68c.13-.31.31-.75.52-1.31s.47-1.29.77-2.2l1.13-3.72c0-.17-.34-.26-1-.29s-1.8,0-3.42.09l-4.7.25-1.09,1.58a20.21,20.21,0,0,1-2.6,3,28.68,28.68,0,0,1-3.11,2.61,17.36,17.36,0,0,1-3.18,1.84,8.38,8.38,0,0,1-2.75.76A6,6,0,0,1,265.89,103.51Zm25.69-18.37q.69-2.3,1.64-5.33t2-6.3q1-3.26,2.09-6.48c.69-2.15,1.3-4.11,1.82-5.86s.95-3.25,1.28-4.46a10.91,10.91,0,0,0,.47-2.32c0-.12-.08-.17-.23-.17a5,5,0,0,0-.76.2,8.09,8.09,0,0,0-1.41.59,13.23,13.23,0,0,0-3.07,2.45,20.69,20.69,0,0,0-2.92,4.15,63,63,0,0,0-3.14,6.72q-1.66,4.08-3.78,10.11l-4.1,11.68a.4.4,0,0,0-.06.25c0,.2.24.31.68.33l7.71-.34Z"/><path class="cls-1" d="M71.4,139.13a3.55,3.55,0,0,1-1.09,2.71,4.55,4.55,0,0,1-5.79,0,3.58,3.58,0,0,1-1.08-2.71v-8.35a3.58,3.58,0,0,1,1.08-2.72,4.58,4.58,0,0,1,5.79,0,3.56,3.56,0,0,1,1.09,2.72v.54H69.53v-.54a1.94,1.94,0,0,0-.58-1.49,2.1,2.1,0,0,0-1.54-.56,2,2,0,0,0-1.52.56,2,2,0,0,0-.57,1.49v8.35a2,2,0,0,0,.57,1.49,2.07,2.07,0,0,0,1.52.55,2.14,2.14,0,0,0,1.54-.55,2,2,0,0,0,.58-1.49v-.55H71.4Z"/><path class="cls-1" d="M82.06,142.55H80.12l-.64-2.94H75.55l-.67,2.94H72.94l3.57-15.2h2Zm-2.92-4.64-1.63-7.52-1.62,7.52Z"/><path class="cls-1" d="M85.52,129.05H82.71v-1.7H90.2v1.7H87.39v13.5H85.52Z"/><path class="cls-1" d="M99.26,129.05H94.37v5h4.28v1.7H94.37v5.11h4.89v1.7H92.5v-15.2h6.76Z"/><path class="cls-1" d="M109.59,134.58a3,3,0,0,1-1,1.18,2.72,2.72,0,0,1,1,1,2.66,2.66,0,0,1,.35,1.35v4.46h-1.87v-4.46a1.53,1.53,0,0,0-.5-1.19,1.93,1.93,0,0,0-1.33-.45H104v6.1h-1.87v-15.2h4.12a3.75,3.75,0,0,1,2.69,1,3.32,3.32,0,0,1,1,2.53v2.1A3.76,3.76,0,0,1,109.59,134.58Zm-2-.33a1.78,1.78,0,0,0,.5-1.31v-2.1a1.74,1.74,0,0,0-.5-1.3,1.86,1.86,0,0,0-1.33-.49H104v5.7h2.25A1.83,1.83,0,0,0,107.56,134.25Z"/><path class="cls-1" d="M113.48,142.55v-15.2h1.87v15.2Z"/><path class="cls-1" d="M127.06,127.35v15.2h-1.59L121,131.79v10.76h-1.78v-15.2h1.58l4.5,10.76V127.35Z"/><path class="cls-1" d="M131.73,141.84a3.58,3.58,0,0,1-1.08-2.71v-8.35a3.58,3.58,0,0,1,1.08-2.72,4,4,0,0,1,2.89-1,4.05,4.05,0,0,1,2.9,1,3.59,3.59,0,0,1,1.09,2.72v.54h-1.88v-.54a2,2,0,0,0-.57-1.49,2.1,2.1,0,0,0-1.54-.56,2.06,2.06,0,0,0-1.53.56,2,2,0,0,0-.57,1.49v8.35a2,2,0,0,0,.57,1.49,2.1,2.1,0,0,0,1.53.55,2.14,2.14,0,0,0,1.54-.55,2,2,0,0,0,.57-1.49v-2.21h-2.11v-1.71h4v3.92a3.58,3.58,0,0,1-1.09,2.71,4.06,4.06,0,0,1-2.9,1A4,4,0,0,1,131.73,141.84Z"/><path class="cls-1" d="M154.53,142.55h-1.94l-.65-2.94H148l-.67,2.94h-1.94l3.57-15.2h2Zm-2.92-4.64L150,130.39l-1.63,7.52Z"/><path class="cls-1" d="M164.87,127.35v15.2h-1.58l-4.5-10.76v10.76H157v-15.2h1.59l4.5,10.76V127.35Z"/><path class="cls-1" d="M168.71,127.35h3.83a4.08,4.08,0,0,1,2.9,1,3.58,3.58,0,0,1,1.1,2.72v7.7a3.56,3.56,0,0,1-1.1,2.72,4,4,0,0,1-2.9,1h-3.83Zm3.83,13.5a2.13,2.13,0,0,0,1.54-.56,1.94,1.94,0,0,0,.58-1.49v-7.7a2,2,0,0,0-.58-1.49,2.13,2.13,0,0,0-1.54-.56h-2v11.8Z"/><path class="cls-1" d="M191.63,129.05h-4.88v5H191v1.7h-4.28v5.11h4.88v1.7h-6.75v-15.2h6.75Z"/><path class="cls-1" d="M202.24,127.35l-3.54,15.2h-2l-3.57-15.2h1.94l2.63,11.76,2.61-11.76Z"/><path class="cls-1" d="M211.48,129.05h-4.89v5h4.28v1.7h-4.28v5.11h4.89v1.7h-6.76v-15.2h6.76Z"/><path class="cls-1" d="M222.2,127.35v15.2h-1.58l-4.51-10.76v10.76h-1.78v-15.2h1.58l4.51,10.76V127.35Z"/><path class="cls-1" d="M227.33,129.05h-2.81v-1.7H232v1.7H229.2v13.5h-1.87Z"/><path class="cls-1" d="M234.75,141.84a3.55,3.55,0,0,1-1.09-2.71v-.55h1.87v.55a2,2,0,0,0,.58,1.49,2.43,2.43,0,0,0,3.08,0,2,2,0,0,0,.58-1.49v-1.2a2,2,0,0,0-.58-1.49,2.14,2.14,0,0,0-1.54-.56,4.05,4.05,0,0,1-2.9-1,3.56,3.56,0,0,1-1.09-2.72v-1.35a3.56,3.56,0,0,1,1.09-2.72,4.6,4.6,0,0,1,5.8,0,3.56,3.56,0,0,1,1.09,2.72v.54h-1.87v-.54a1.94,1.94,0,0,0-.58-1.49,2.4,2.4,0,0,0-3.08,0,2,2,0,0,0-.58,1.49v1.35a2,2,0,0,0,.58,1.48,2.11,2.11,0,0,0,1.54.57,4,4,0,0,1,2.9,1,3.57,3.57,0,0,1,1.09,2.72v1.2a3.55,3.55,0,0,1-1.09,2.71,4.56,4.56,0,0,1-5.8,0Z"/><line class="cls-2" y1="134.95" x2="45.3" y2="134.95"/><line class="cls-2" x1="259.79" y1="134.95" x2="305.09" y2="134.95"/><path class="cls-1" d="M52.08,23.82a1.67,1.67,0,0,1-.56.65,1.4,1.4,0,0,1,.55.53,1.45,1.45,0,0,1,.2.75v2.44h-1V25.75a.84.84,0,0,0-.27-.66,1.07,1.07,0,0,0-.73-.24H49v3.34H48V19.87h2.25a2,2,0,0,1,1.47.52,1.85,1.85,0,0,1,.56,1.38v1.16A2.11,2.11,0,0,1,52.08,23.82ZM51,23.64a1,1,0,0,0,.27-.71V21.77a.93.93,0,0,0-.27-.7,1,1,0,0,0-.73-.27H49v3.12h1.23A1,1,0,0,0,51,23.64Z"/><path class="cls-1" d="M54.67,27.8a2,2,0,0,1-.6-1.49V21.74a1.93,1.93,0,0,1,.6-1.48,2.17,2.17,0,0,1,1.58-.57,2.2,2.2,0,0,1,1.58.57,1.93,1.93,0,0,1,.6,1.48v4.57a2,2,0,0,1-.6,1.49,2.24,2.24,0,0,1-1.58.56A2.21,2.21,0,0,1,54.67,27.8Zm2.42-.67a1.11,1.11,0,0,0,.32-.82V21.74a1.07,1.07,0,0,0-.32-.81,1.29,1.29,0,0,0-1.68,0,1.06,1.06,0,0,0-.31.81v4.57a1.1,1.1,0,0,0,.31.82,1.33,1.33,0,0,0,1.68,0Z"/><path class="cls-1" d="M64.61,26.31A2,2,0,0,1,64,27.8a2.25,2.25,0,0,1-1.59.56,2.23,2.23,0,0,1-1.58-.56,2,2,0,0,1-.59-1.49V21.74a2,2,0,0,1,.59-1.48,2.19,2.19,0,0,1,1.58-.57,2.21,2.21,0,0,1,1.59.57,1.92,1.92,0,0,1,.59,1.48V22h-1v-.3a1.07,1.07,0,0,0-.32-.81,1.13,1.13,0,0,0-.84-.31,1.09,1.09,0,0,0-.83.31,1.07,1.07,0,0,0-.32.81v4.57a1.11,1.11,0,0,0,.32.82,1.13,1.13,0,0,0,.83.3,1.17,1.17,0,0,0,.84-.3,1.11,1.11,0,0,0,.32-.82V26h1Z"/><path class="cls-1" d="M66.2,19.87h1v4.22h2.13V19.87h1v8.32h-1V25H67.23v3.17h-1Z"/><path class="cls-1" d="M76.18,20.8H73.51v2.73h2.34v.93H73.51v2.79h2.67v.94h-3.7V19.87h3.7Z"/><path class="cls-1" d="M78,27.8a2,2,0,0,1-.6-1.49V26h1v.3a1.11,1.11,0,0,0,.32.82,1.33,1.33,0,0,0,1.68,0,1.07,1.07,0,0,0,.32-.82v-.65a1.06,1.06,0,0,0-.32-.82,1.17,1.17,0,0,0-.84-.3A2.17,2.17,0,0,1,78,24a2,2,0,0,1-.6-1.49v-.74a1.93,1.93,0,0,1,.6-1.48,2.17,2.17,0,0,1,1.58-.57,2.21,2.21,0,0,1,1.59.57,1.93,1.93,0,0,1,.6,1.48V22h-1v-.3a1,1,0,0,0-.32-.81,1.29,1.29,0,0,0-1.68,0,1.07,1.07,0,0,0-.32.81v.74a1.07,1.07,0,0,0,.32.81,1.14,1.14,0,0,0,.84.32,2.21,2.21,0,0,1,1.59.56,2,2,0,0,1,.6,1.49v.65a2,2,0,0,1-.6,1.49,2.25,2.25,0,0,1-1.59.56A2.21,2.21,0,0,1,78,27.8Z"/><path class="cls-1" d="M84.2,20.8H82.66v-.93h4.1v.93H85.22v7.39h-1Z"/><path class="cls-1" d="M91.71,20.8H89v2.73h2.34v.93H89v2.79h2.67v.94H88V19.87h3.7Z"/><path class="cls-1" d="M97.37,23.82a1.75,1.75,0,0,1-.56.65,1.4,1.4,0,0,1,.55.53,1.45,1.45,0,0,1,.2.75v2.44h-1V25.75a.84.84,0,0,0-.27-.66,1.09,1.09,0,0,0-.73-.24H94.3v3.34h-1V19.87h2.26a2,2,0,0,1,1.47.52,1.85,1.85,0,0,1,.56,1.38v1.16A2.11,2.11,0,0,1,97.37,23.82Zm-1.11-.18a1,1,0,0,0,.27-.71V21.77a.93.93,0,0,0-.27-.7,1,1,0,0,0-.73-.27H94.3v3.12h1.23A1,1,0,0,0,96.26,23.64Z"/><path class="cls-1" d="M99.86,26.8h1l-.49,2h-1Z"/><path class="cls-1" d="M109.78,19.87v8.32h-.87l-2.46-5.89v5.89h-1V19.87h.87l2.46,5.89V19.87Z"/><path class="cls-1" d="M116.38,19.87,114.21,24v4.2h-1V24L111,19.87h1L113.7,23l1.63-3.16Z"/><line class="cls-2" x1="0.34" y1="23.69" x2="29.9" y2="23.69"/><line class="cls-2" x1="275.19" y1="23.69" x2="304.74" y2="23.69"/><path class="cls-1" d="M205.39,20.86h-2.82v2.87H205v1h-2.47v2.94h2.82v1H201.5V19.88h3.89Z"/><path class="cls-1" d="M207.29,28.22a2,2,0,0,1-.63-1.56v-.32h1.08v.32a1.15,1.15,0,0,0,.33.86,1.24,1.24,0,0,0,.89.32,1.22,1.22,0,0,0,.88-.32,1.16,1.16,0,0,0,.34-.86V26a1.16,1.16,0,0,0-.34-.86,1.22,1.22,0,0,0-.88-.32,2.31,2.31,0,0,1-1.67-.6,2,2,0,0,1-.63-1.56v-.78a2.06,2.06,0,0,1,.63-1.57,2.66,2.66,0,0,1,3.34,0,2.1,2.1,0,0,1,.63,1.57v.31h-1.08v-.31a1.14,1.14,0,0,0-.34-.86,1.22,1.22,0,0,0-.88-.32,1.24,1.24,0,0,0-.89.32,1.14,1.14,0,0,0-.33.86v.78a1.13,1.13,0,0,0,.33.85,1.21,1.21,0,0,0,.89.33,2.33,2.33,0,0,1,1.67.6,2.06,2.06,0,0,1,.63,1.56v.69a2.08,2.08,0,0,1-.63,1.56,2.62,2.62,0,0,1-3.34,0Z"/><path class="cls-1" d="M213.82,20.86h-1.61v-1h4.31v1H214.9v7.77h-1.08Z"/><path class="cls-1" d="M218,27.17h1.08v1.46H218Z"/><path class="cls-1" d="M228,23.65a3.94,3.94,0,0,1-.61.8c-.23.23-.55.52-1,.85s-.67.56-.88.77a3.22,3.22,0,0,0-.55.68,1.59,1.59,0,0,0-.22.78v.12h3.46v1h-4.59v-.84a2.67,2.67,0,0,1,.29-1.24,4.08,4.08,0,0,1,.7-1q.42-.41,1-.93a7.86,7.86,0,0,0,1.11-1,1.37,1.37,0,0,0,.36-.92v-.86a1.14,1.14,0,0,0-.33-.86,1.37,1.37,0,0,0-1.76,0,1.11,1.11,0,0,0-.34.86v.31h-1.08v-.31a2.06,2.06,0,0,1,.63-1.57,2.36,2.36,0,0,1,1.67-.59,2.32,2.32,0,0,1,1.66.59,2.06,2.06,0,0,1,.63,1.57v.86A1.91,1.91,0,0,1,228,23.65Z"/><path class="cls-1" d="M233.69,20.28a2.06,2.06,0,0,1,.63,1.57v4.81a2,2,0,0,1-.63,1.56,2.29,2.29,0,0,1-1.66.6,2.33,2.33,0,0,1-1.67-.6,2,2,0,0,1-.63-1.56V21.85a2.06,2.06,0,0,1,.63-1.57,2.36,2.36,0,0,1,1.67-.59A2.32,2.32,0,0,1,233.69,20.28Zm-2.88,6.38a1.27,1.27,0,0,0,.05.37l1.85-6.18a1.23,1.23,0,0,0-.68-.18,1.26,1.26,0,0,0-.89.32,1.14,1.14,0,0,0-.33.86Zm2.43-4.81a1.78,1.78,0,0,0,0-.35l-1.86,6.16a1.29,1.29,0,0,0,.69.18,1.22,1.22,0,0,0,.88-.32,1.15,1.15,0,0,0,.33-.86Z"/><path class="cls-1" d="M236.81,21.86h-1.34v-1h.26a1.24,1.24,0,0,0,.79-.23.79.79,0,0,0,.29-.64v-.13h1.07v8.75h-1.07Z"/><path class="cls-1" d="M243.81,20.28a2.06,2.06,0,0,1,.62,1.57v4.81a2,2,0,0,1-.62,1.56,2.61,2.61,0,0,1-3.33,0,2,2,0,0,1-.63-1.56V21.85a2.06,2.06,0,0,1,.63-1.57,2.64,2.64,0,0,1,3.33,0Zm-2.88,6.38a1.27,1.27,0,0,0,0,.37l1.85-6.18a1.39,1.39,0,0,0-1.57.14,1.14,1.14,0,0,0-.33.86Zm2.42-4.81a1.83,1.83,0,0,0,0-.35l-1.87,6.16a1.33,1.33,0,0,0,.7.18,1.22,1.22,0,0,0,.88-.32,1.19,1.19,0,0,0,.32-.86Z"/><path class="cls-1" d="M164.46.48c-4.78-1.69-9.35,1.41-11.58,4.88a.39.39,0,0,1-.67,0C150,1.9,145.47-1.19,140.68.45a9,9,0,0,0-6,8.45,7.62,7.62,0,0,0,.06,1.06c.46,5,4.68,12.08,8.89,18l.18-13.86h2L146,31.16c1,1.25,1.87,2.41,2.69,3.43L149,14.07h2l.3,23.6,1,1.11a.4.4,0,0,0,.64,0c.23-.25.56-.63,1-1.11l.3-23.6h2l.26,20.52c.83-1,1.74-2.18,2.7-3.43l.21-17.09h2l.17,13.86c4.22-5.89,8.43-12.92,8.9-18a6.21,6.21,0,0,0,0-1.05A9,9,0,0,0,164.46.48Z"/></g></g></svg>